# xmcd CD database file
#
# Track frame offsets:
#	150
#	18790
#	32828
#	51780
#	69730
#	96145
#	115135
#	133900
#	157468
#	177980
#	196953
#	221818
#	246730
#
# Disc length: 3524 seconds
#
# Revision: 0
# Processed by: cddbd v1.5.1PL0 Copyright (c) Steve Scherf et al.
# Submitted via: CDex 1.51
#
DISCID=c90dc20d
DTITLE=dorlis - Swingin' Street
DYEAR=1900
DGENRE=Jazz
TTITLE0=24時間世界一周
TTITLE1=マーブルの月
TTITLE2=銀色プレゼント
TTITLE3=ひとりごとみたいにアイシテタ
TTITLE4=靴擦れ
TTITLE5=記憶の万華鏡
TTITLE6=恋のバーグラー
TTITLE7=ダプネリーフ
TTITLE8=5日目の笑顔
TTITLE9=月ドロボウ
TTITLE10=流星のタイムカプセル
TTITLE11=磁石の肌
TTITLE12=24時間世界一周 〜Party Swing Mix〜
EXTD=
EXTT0=
EXTT1=
EXTT2=
EXTT3=
EXTT4=
EXTT5=
EXTT6=
EXTT7=
EXTT8=
EXTT9=
EXTT10=
EXTT11=
EXTT12=
PLAYORDER=
